<svg width="38" height="66" viewBox="0 0 38 66" fill="none" xmlns="http://www.w3.org/2000/svg">
<path d="M29.8922 39.5109V42.3152H7.93469V39.5109C11.2817 38.0948 15.0038 37.2896 18.899 37.2896C22.8231 37.2896 26.5163 38.0948 29.8922 39.5109Z" fill="#329632"/>
<path d="M34.2779 2.80436V0C33.0083 0 28.4783 0.222127 23.4578 2.2768C22.0152 2.85989 20.4571 3.63733 18.899 4.66467C17.3409 3.63733 15.7828 2.85989 14.3401 2.2768C9.3485 0.222127 4.8185 0 3.54895 0V2.80436C4.64538 2.83212 8.80028 3.02648 13.3303 4.8868C14.4556 5.35882 15.5231 5.88637 16.533 6.46946C15.552 7.27467 14.6287 8.21871 13.7342 9.24605C13.0417 8.91286 12.407 8.60743 11.7722 8.32977C7.99238 6.74712 4.58767 6.46946 3.54895 6.41393V9.21828C4.52997 9.27382 7.47302 9.55147 10.7046 10.912C11.1374 11.1064 11.5991 11.3285 12.003 11.5229C11.5414 12.217 11.1086 12.9389 10.7335 13.6886C9.3485 16.3264 8.30977 19.2418 8.1078 22.2127C7.99238 23.9065 7.96353 25.6002 7.93468 27.2939V37.123C8.88684 36.7621 9.839 36.4289 10.82 36.1512C10.82 35.0683 10.82 34.041 10.82 33.4302C10.82 31.2089 10.82 28.9876 10.8489 26.7663C10.9066 24.0175 10.9066 21.3798 11.7433 18.7142C12.0607 17.6869 12.4935 16.6873 12.9263 15.7155C13.0417 15.4934 14.3979 13.0222 14.4267 13.0222C15.4366 13.7719 16.3599 14.6049 17.1389 15.5489C16.4753 16.5485 15.8982 17.6036 15.4366 18.6865C14.2824 21.3798 14.3113 24.1563 14.3979 27.044C14.4556 29.5707 14.3979 32.0974 14.3979 34.6519V35.4015C15.35 35.2627 16.331 35.1516 17.312 35.1239V24.5451C17.312 22.3516 17.8314 20.1581 18.899 18.2144C19.9666 20.1581 20.4859 22.3516 20.4859 24.5451V35.1239C21.4669 35.1794 22.448 35.2627 23.4001 35.4015V34.6519C23.4001 32.1252 23.3424 29.5985 23.4001 27.044C23.4867 24.1841 23.5155 21.4075 22.3614 18.6865C21.8997 17.6036 21.3227 16.5485 20.659 15.5489C21.4381 14.6049 22.3614 13.7719 23.3713 13.0222C23.429 13.0222 24.7851 15.4934 24.8717 15.7155C25.3333 16.6873 25.7373 17.6869 26.0546 18.7142C26.8625 21.3798 26.8914 24.0175 26.9491 26.7663C26.978 28.9876 27.0068 31.2089 26.978 33.4302C26.978 34.0688 26.978 35.0961 26.978 36.1512C27.959 36.4289 28.9111 36.7343 29.8633 37.123V27.0718C29.8633 26.4054 29.8344 25.7668 29.8056 25.1282C29.7767 24.1563 29.7479 23.2123 29.6613 22.2405C29.4594 19.2695 28.4206 16.3541 27.0357 13.7164C26.6606 12.9667 26.2278 12.2448 25.7661 11.5506C26.1989 11.3285 26.6317 11.1341 27.0934 10.9398C30.2961 9.57924 33.268 9.30158 34.249 9.24605V6.41393C33.2103 6.46946 29.8056 6.71935 26.0258 8.32977C25.391 8.60743 24.7562 8.91286 24.0638 9.27382C23.1693 8.21871 22.246 7.30243 21.265 6.49722C22.2748 5.91414 23.3136 5.38659 24.4677 4.91457C28.9977 3.02648 33.1815 2.83212 34.2779 2.80436ZM21.6689 10.8009C20.7168 11.4951 19.7934 12.3281 18.899 13.2721C18.0045 12.3281 17.0812 11.4951 16.1291 10.8009C16.9658 9.82913 17.8891 8.96839 18.899 8.16318C19.9089 8.96839 20.8322 9.82913 21.6689 10.8009Z" fill="#003296"/>
<path d="M3.54897 56.3093H0V49.4511H3.28929C4.67426 49.4511 5.53986 50.1452 5.53986 51.2281C5.53986 52.0056 5.07821 52.5609 4.29916 52.783C5.25133 52.9774 5.79954 53.5605 5.79954 54.449C5.79954 55.5874 4.93394 56.3093 3.54897 56.3093ZM1.47153 50.6728V52.1999H2.85649C3.66439 52.1999 3.98178 51.95 3.98178 51.4225C3.98178 50.8949 3.66439 50.6728 2.85649 50.6728H1.47153ZM3.11617 53.4216H1.47153V55.0598H3.08732C3.89522 55.0598 4.2126 54.8099 4.2126 54.2546C4.24146 53.6993 3.92407 53.4216 3.11617 53.4216Z" fill="#003296"/>
<path d="M12.1473 51.3114V56.3093H10.7335V55.5596C10.445 56.1149 9.78135 56.4481 9.03116 56.4481C7.67505 56.4481 6.69403 55.3652 6.69403 53.8103C6.69403 52.2554 7.67505 51.1726 9.03116 51.1726C9.78135 51.1726 10.445 51.5058 10.7335 52.0611V51.3114H12.1473ZM9.43511 52.422C8.62721 52.422 8.1367 52.9773 8.1367 53.8103C8.1367 54.6433 8.62721 55.1986 9.43511 55.1986C10.243 55.1986 10.7335 54.6433 10.7335 53.8103C10.7335 52.9773 10.243 52.422 9.43511 52.422Z" fill="#003296"/>
<path d="M16.6196 56.4481C15.8694 56.4481 15.2058 56.1149 14.9172 55.5596V56.3093H13.5034V49.1457H14.9461V52.0056C15.2635 51.478 15.8694 51.1726 16.6196 51.1726C17.9757 51.1726 18.9567 52.2554 18.9567 53.8103C18.9856 55.3652 18.0046 56.4481 16.6196 56.4481ZM16.2156 52.422C15.4077 52.422 14.9172 52.9774 14.9172 53.8103C14.9172 54.6433 15.4077 55.1986 16.2156 55.1986C17.0235 55.1986 17.514 54.6433 17.514 53.8103C17.514 52.9774 17.0235 52.422 16.2156 52.422Z" fill="#003296"/>
<path d="M23.1693 56.4481C22.4191 56.4481 21.7555 56.1149 21.467 55.5596V56.3093H20.0532V49.1457H21.4958V52.0056C21.8132 51.478 22.4191 51.1726 23.1693 51.1726C24.5254 51.1726 25.5065 52.2554 25.5065 53.8103C25.5353 55.3652 24.5543 56.4481 23.1693 56.4481ZM22.7654 52.422C21.9575 52.422 21.467 52.9774 21.467 53.8103C21.467 54.6433 21.9575 55.1986 22.7654 55.1986C23.5733 55.1986 24.0638 54.6433 24.0638 53.8103C24.0638 52.9774 23.5444 52.422 22.7654 52.422Z" fill="#003296"/>
<path d="M31.7676 51.3114V56.3093H30.3538V55.5596C30.0653 56.1149 29.4017 56.4481 28.6515 56.4481C27.2954 56.4481 26.3143 55.3652 26.3143 53.8103C26.3143 52.2554 27.2954 51.1726 28.6515 51.1726C29.4017 51.1726 30.0653 51.5058 30.3538 52.0611V51.3114H31.7676ZM29.0843 52.422C28.2764 52.422 27.7859 52.9773 27.7859 53.8103C27.7859 54.6433 28.2764 55.1986 29.0843 55.1986C29.8922 55.1986 30.3827 54.6433 30.3827 53.8103C30.3827 52.9773 29.8922 52.422 29.0843 52.422Z" fill="#003296"/>
<path d="M38 56.3093H36.5574V53.3939C36.5574 52.7275 36.2688 52.4221 35.6629 52.4221C34.9704 52.4221 34.5953 52.8108 34.5953 53.4772V56.2815H33.1526V51.2837H34.5665V52.0056C34.855 51.478 35.4609 51.1448 36.2111 51.1448C37.3075 51.1448 38 51.8112 38 53.0051V56.3093Z" fill="#003296"/>
<path d="M12.9552 60.9462V63.8616C12.3781 64.5835 11.2529 65.0278 9.9833 65.0278C7.64617 65.0278 6.17464 63.5284 6.17464 61.4737C6.14579 59.4191 7.73273 57.8642 9.89674 57.8919C11.1663 57.8919 12.1762 58.364 12.7532 59.2247L11.5702 60.0299C11.1663 59.5301 10.5604 59.2525 9.86789 59.2525C8.56948 59.2525 7.73273 60.141 7.73273 61.4737C7.73273 62.8343 8.59833 63.6672 10.0699 63.6672C10.6758 63.6672 11.1951 63.5284 11.5702 63.2785V62.1679H10.041V60.9462H12.9552Z" fill="#003296"/>
<path d="M16.6485 59.7523C18.322 59.7523 19.4184 60.9184 19.4184 62.39C19.4184 63.8616 18.322 65.0278 16.6485 65.0278C14.975 65.0278 13.8785 63.8616 13.8785 62.39C13.8785 60.8907 14.975 59.7523 16.6485 59.7523ZM16.6485 61.0017C15.8406 61.0017 15.3501 61.557 15.3501 62.39C15.3501 63.223 15.8406 63.7783 16.6485 63.7783C17.4564 63.7783 17.9469 63.223 17.9469 62.39C17.9469 61.557 17.4564 61.0017 16.6485 61.0017Z" fill="#003296"/>
<path d="M25.3622 64.8612H23.9195V61.9458C23.9195 61.2794 23.631 60.974 23.0251 60.974C22.3326 60.974 21.9575 61.3627 21.9575 62.0291V64.8334H20.5148V59.8355H21.9287V60.5575C22.2172 60.0299 22.8231 59.6967 23.5733 59.6967C24.6697 59.6967 25.3622 60.3631 25.3622 61.557V64.8612Z" fill="#003296"/>
<path d="M31.8542 59.8911V64.8889H30.4404V64.1393C30.1519 64.6946 29.4883 65.0278 28.7381 65.0278C27.382 65.0278 26.4009 63.9449 26.4009 62.39C26.4009 60.8351 27.382 59.7523 28.7381 59.7523C29.4883 59.7523 30.1519 60.0854 30.4404 60.6408V59.8911H31.8542ZM29.1709 61.0017C28.363 61.0017 27.8725 61.557 27.8725 62.39C27.8725 63.223 28.363 63.7783 29.1709 63.7783C29.9788 63.7783 30.4693 63.223 30.4693 62.39C30.4693 61.557 29.9788 61.0017 29.1709 61.0017Z" fill="#003296"/>
</svg>
