<svg width="12" height="14" viewBox="0 0 12 14" fill="none" xmlns="http://www.w3.org/2000/svg">
<path d="M2.66667 6.66667H4V8H2.66667V6.66667ZM12 2.66667V12C12 12.3536 11.8595 12.6928 11.6095 12.9428C11.3594 13.1929 11.0203 13.3333 10.6667 13.3333H1.33333C0.979711 13.3333 0.640573 13.1929 0.390524 12.9428C0.140476 12.6928 0 12.3536 0 12V2.66667C0 2.31304 0.140476 1.97391 0.390524 1.72386C0.640573 1.47381 0.979711 1.33333 1.33333 1.33333H2V0H3.33333V1.33333H8.66667V0H10V1.33333H10.6667C11.0203 1.33333 11.3594 1.47381 11.6095 1.72386C11.8595 1.97391 12 2.31304 12 2.66667ZM1.33333 4H10.6667V2.66667H1.33333V4ZM10.6667 12V5.33333H1.33333V12H10.6667ZM8 8V6.66667H9.33333V8H8ZM5.33333 8V6.66667H6.66667V8H5.33333ZM2.66667 9.33333H4V10.6667H2.66667V9.33333ZM8 10.6667V9.33333H9.33333V10.6667H8ZM5.33333 10.6667V9.33333H6.66667V10.6667H5.33333Z" fill="#003296"/>
</svg>
