<svg width="78" height="59" viewBox="0 0 78 59" fill="none" xmlns="http://www.w3.org/2000/svg">
<path d="M38.7303 47.5533C47.063 47.5533 53.818 40.8679 53.818 32.6211C53.818 24.3743 47.063 17.6889 38.7303 17.6889C30.3976 17.6889 23.6426 24.3743 23.6426 32.6211C23.6426 40.8679 30.3976 47.5533 38.7303 47.5533Z" fill="#003296"/>
<path fill-rule="evenodd" clip-rule="evenodd" d="M48.5877 25.0694C49.0733 25.5552 49.0733 26.3428 48.5877 26.8286L35.1606 40.2594L29.0752 33.8816C28.601 33.3846 28.6194 32.5972 29.1162 32.1229C29.6131 31.6486 30.4003 31.667 30.8745 32.1639L35.2021 36.6995L46.829 25.0694C47.3146 24.5836 48.102 24.5836 48.5877 25.0694Z" fill="#CCD6EA"/>
<path d="M0.304065 55.3926C0.203862 55.3857 0.100203 55.3788 0 55.3719C0 39.8994 0 24.4268 0 8.95424C0.0863822 8.86828 0.179675 8.85797 0.279878 8.9233C0.286789 24.4131 0.297155 39.9028 0.304065 55.3926Z" fill="white" fill-opacity="0.2"/>
<path d="M77.4607 9.63161C77.44 17.2854 77.402 24.9391 77.402 32.5895C77.402 39.9578 77.44 47.3262 77.4607 54.6912C76.9735 57.1186 75.7987 58.1157 73.3282 58.1192C50.3332 58.1261 27.3383 58.1192 4.34681 58.1295C2.33928 58.1295 0.919159 57.3765 0.307573 55.3926C0.300663 39.9028 0.290297 24.4131 0.283386 8.92331C1.04701 6.80529 1.8901 6.17951 4.04274 6.12793C4.38827 6.12106 4.7338 6.13137 5.07933 6.1245C6.05372 6.11074 7.23197 6.43051 7.95413 5.99728C8.79031 5.49528 8.17872 4.21278 8.32039 3.28098C8.62791 1.29018 10.0273 0.028308 12.0797 0.0111162C14.5537 -0.00951385 17.0277 0.00423946 19.5017 0.0076778C22.4249 0.0111162 23.8761 1.35551 23.7828 4.29873C23.7344 5.80473 24.1249 6.17263 25.6556 6.16576C41.5326 6.10043 57.4097 6.1245 73.2867 6.13137C75.968 6.13481 77.0426 7.05629 77.4607 9.63161ZM3.44152 55.7295C3.90107 56.235 4.51612 56.0493 5.06551 56.0493C27.5491 56.0562 50.0292 56.0527 72.5127 56.0493C74.8174 56.0493 75.3219 55.5301 75.3219 53.2161C75.3254 42.344 75.2873 31.472 75.3634 20.6034C75.3737 18.9151 74.8623 18.3066 73.2314 18.5782C73.0069 18.616 72.7719 18.6023 72.5438 18.6126C71.4762 18.42 71.0615 18.8704 71.1652 19.926C71.2205 20.4933 71.1652 21.071 71.1756 21.6452C71.1963 22.8692 70.5812 23.4056 69.3719 23.3988C66.3209 23.3816 63.2698 23.3781 60.2188 23.4022C59.0164 23.4091 58.4428 22.9139 58.3841 21.6761C58.2389 18.5816 58.2078 18.5851 55.143 18.5851C54.6247 18.5851 54.1064 18.5713 53.5881 18.5919C53.2633 18.6057 52.828 18.475 52.6932 18.8911C52.5723 19.2693 52.9524 19.4825 53.17 19.7335C57.2127 24.3649 58.7192 29.6669 57.7552 35.7665C56.1001 46.25 45.4647 53.5531 35.0056 51.2597C23.0019 48.6259 16.5716 36.6192 20.9737 25.2142C21.91 22.7833 23.6584 20.9094 25.1235 18.5885C17.7775 18.5885 10.6527 18.5988 3.5279 18.5748C2.5466 18.5713 2.40839 19.0596 2.41184 19.8607C2.42567 31.3207 2.42221 42.7773 2.4153 54.2373C2.4153 54.9868 2.51896 55.6229 3.44152 55.7295ZM38.6993 8.30785C38.6993 8.30097 38.6993 8.29409 38.6993 8.28722C38.295 8.28722 37.8942 8.28722 37.4899 8.28722C26.6058 8.28722 15.7216 8.28722 4.83746 8.28722C2.64335 8.28722 2.42567 8.50383 2.41875 10.6081C2.4153 12.0419 2.50859 13.4826 2.39111 14.9026C2.284 16.192 2.68827 16.5255 3.99091 16.5152C11.5925 16.4499 19.1942 16.4739 26.7958 16.4946C27.6873 16.498 28.4371 16.2779 29.2249 15.8481C34.6808 12.8671 40.4788 12.2035 46.0936 14.8613C49.193 16.3295 52.1887 16.4946 55.378 16.4842C55.7235 16.4842 56.0794 16.4292 56.4111 16.4946C58.1215 16.8178 58.6743 16.0854 58.4083 14.4625C58.156 12.9152 58.8056 12.2963 60.4331 12.3582C63.1938 12.4648 65.9615 12.3857 68.7257 12.3892C71.1306 12.3892 71.1997 12.3926 71.1168 14.7994C71.0719 16.082 71.331 16.7662 72.7788 16.4602C73.1658 16.3776 73.5873 16.3983 73.9847 16.4499C74.9453 16.5702 75.3184 16.2332 75.2666 15.2224C75.1871 13.6785 75.2528 12.1279 75.2424 10.5806C75.2286 8.64824 74.8934 8.31129 72.9066 8.31129C61.5007 8.30097 50.0983 8.30785 38.6993 8.30785ZM38.8721 15.5318C29.4979 15.5318 21.7787 23.1237 21.7718 32.3522C21.7649 41.7664 29.3804 49.4339 38.7719 49.4649C48.1322 49.4958 55.8928 41.787 55.8928 32.4588C55.8928 23.2234 48.1599 15.5318 38.8721 15.5318ZM15.9669 6.19326C17.2903 6.19326 18.6102 6.1692 19.9336 6.20358C20.8251 6.22765 21.568 6.18295 21.4539 4.97609C21.3468 3.84144 21.8478 2.25292 20.0822 2.13945C17.394 1.96754 14.6712 1.95034 11.9865 2.15664C10.4765 2.27011 10.4005 3.70734 10.3901 4.96234C10.3797 6.27922 11.2919 6.1967 12.1765 6.19326C13.4411 6.18983 14.7058 6.18983 15.9669 6.19326ZM64.6001 21.2498C65.6333 21.2498 66.6733 21.2017 67.703 21.2635C68.6186 21.3186 68.9123 20.9541 68.8812 20.0739C68.8294 18.647 68.8225 17.2132 68.8847 15.7828C68.9262 14.827 68.6255 14.4522 67.6201 14.5003C66.1274 14.5691 64.6312 14.5003 63.1351 14.5003C60.5333 14.4969 60.5333 14.5003 60.5333 17.1616C60.5367 21.2842 60.5367 21.2842 64.6001 21.2498Z" fill="#003296"/>
<path d="M38.6992 8.30783C50.1017 8.30783 61.5042 8.3044 72.9032 8.31127C74.8899 8.31127 75.2251 8.64823 75.2389 10.5806C75.2493 12.1278 75.1836 13.6785 75.2631 15.2223C75.3149 16.2298 74.9418 16.5667 73.9812 16.4498C73.5838 16.4017 73.1623 16.3811 72.7753 16.4602C71.3241 16.7662 71.0684 16.0854 71.1133 14.7994C71.1962 12.396 71.1271 12.3926 68.7223 12.3892C65.958 12.3892 63.1903 12.4648 60.4296 12.3582C58.8021 12.2963 58.1525 12.9118 58.4048 14.4625C58.6708 16.0854 58.1145 16.8143 56.4076 16.4945C56.0724 16.4326 55.72 16.4842 55.3745 16.4842C52.1852 16.498 49.1861 16.3295 46.0901 14.8613C40.4787 12.2035 34.6807 12.8671 29.2214 15.8481C28.4336 16.2779 27.6838 16.498 26.7923 16.4945C19.1907 16.4739 11.5891 16.4498 3.98742 16.5152C2.68477 16.5255 2.27705 16.192 2.38762 14.9026C2.51201 13.4791 2.41526 12.0384 2.41872 10.6081C2.42563 8.50382 2.64331 8.2872 4.83742 8.2872C15.7216 8.28376 26.6057 8.2872 37.4899 8.2872C37.8942 8.2872 38.295 8.2872 38.6992 8.2872C38.6992 8.29408 38.6992 8.30096 38.6992 8.30783Z" fill="#003296" fill-opacity="0.2"/>
</svg>
