<svg width="10" height="8" viewBox="0 0 10 8" fill="none" xmlns="http://www.w3.org/2000/svg">
<path d="M10 5.55556L7.77778 7.77778L6.22222 6.22222L6.88889 5.55556L7.77778 6.44445L9.33333 4.88889L10 5.55556ZM4.88889 2C5.24251 2 5.58165 2.14048 5.8317 2.39052C6.08175 2.64057 6.22222 2.97971 6.22222 3.33333C6.22222 3.68696 6.08175 4.02609 5.8317 4.27614C5.58165 4.52619 5.24251 4.66667 4.88889 4.66667C4.53527 4.66667 4.19613 4.52619 3.94608 4.27614C3.69603 4.02609 3.55556 3.68696 3.55556 3.33333C3.55556 2.97971 3.69603 2.64057 3.94608 2.39052C4.19613 2.14048 4.53527 2 4.88889 2ZM4.88889 0C7.11111 0 9.00889 1.38222 9.77778 3.33333C9.66667 3.62222 9.52889 3.89333 9.36889 4.15556C9.10886 3.99822 8.82293 3.88837 8.52444 3.83111L8.80889 3.33333C8.44967 2.59986 7.89186 1.98189 7.1989 1.54966C6.50593 1.11744 5.7056 0.888303 4.88889 0.888303C4.07218 0.888303 3.27185 1.11744 2.57888 1.54966C1.88591 1.98189 1.32811 2.59986 0.968889 3.33333C1.3282 4.06669 1.88603 4.68455 2.57899 5.11666C3.27195 5.54878 4.07224 5.77783 4.88889 5.77778L5.42667 5.74667C5.36444 5.96889 5.33333 6.20444 5.33333 6.44445V6.64889L4.88889 6.66667C2.66667 6.66667 0.768889 5.28444 0 3.33333C0.768889 1.38222 2.66667 0 4.88889 0Z" fill="#003296"/>
</svg>
