<svg width="10" height="7" viewBox="0 0 10 7" fill="none" xmlns="http://www.w3.org/2000/svg">
<path d="M5 2C5.36166 2 5.70851 2.14048 5.96424 2.39052C6.21997 2.64057 6.36364 2.97971 6.36364 3.33333C6.36364 3.68696 6.21997 4.02609 5.96424 4.27614C5.70851 4.52619 5.36166 4.66667 5 4.66667C4.63834 4.66667 4.29149 4.52619 4.03576 4.27614C3.78003 4.02609 3.63636 3.68696 3.63636 3.33333C3.63636 2.97971 3.78003 2.64057 4.03576 2.39052C4.29149 2.14048 4.63834 2 5 2ZM5 0C7.27273 0 9.21364 1.38222 10 3.33333C9.21364 5.28444 7.27273 6.66667 5 6.66667C2.72727 6.66667 0.786364 5.28444 0 3.33333C0.786364 1.38222 2.72727 0 5 0ZM0.990909 3.33333C1.3583 4.0668 1.92878 4.68478 2.63749 5.117C3.34621 5.54923 4.16473 5.77836 5 5.77836C5.83527 5.77836 6.65379 5.54923 7.36251 5.117C8.07123 4.68478 8.6417 4.0668 9.00909 3.33333C8.6417 2.59986 8.07123 1.98189 7.36251 1.54966C6.65379 1.11744 5.83527 0.888303 5 0.888303C4.16473 0.888303 3.34621 1.11744 2.63749 1.54966C1.92878 1.98189 1.3583 2.59986 0.990909 3.33333Z" fill="#001D58"/>
</svg>
