<svg width="35" height="26" viewBox="0 0 35 26" fill="none" xmlns="http://www.w3.org/2000/svg">
<path d="M17.2303 21.1555C20.9374 21.1555 23.9426 18.1813 23.9426 14.5125C23.9426 10.8436 20.9374 7.86945 17.2303 7.86945C13.5233 7.86945 10.5181 10.8436 10.5181 14.5125C10.5181 18.1813 13.5233 21.1555 17.2303 21.1555Z" fill="white"/>
<path fill-rule="evenodd" clip-rule="evenodd" d="M21.6157 11.1529C21.8317 11.369 21.8317 11.7194 21.6157 11.9355L15.6422 17.9106L12.935 15.0733C12.724 14.8522 12.7322 14.5019 12.9532 14.2908C13.1743 14.0798 13.5245 14.088 13.7354 14.3091L15.6607 16.3269L20.8333 11.1529C21.0493 10.9368 21.3996 10.9368 21.6157 11.1529Z" fill="#334A79"/>
<path d="M0.135273 24.643C0.0906941 24.64 0.0445785 24.6369 0 24.6339C0 17.7504 0 10.867 0 3.98355C0.0384297 3.94531 0.0799338 3.94072 0.124512 3.96978C0.127587 10.8609 0.132198 17.7519 0.135273 24.643Z" fill="white" fill-opacity="0.2"/>
<path d="M34.4607 4.28491C34.4515 7.68992 34.4346 11.0949 34.4346 14.4984C34.4346 17.7764 34.4515 21.0545 34.4607 24.331C34.244 25.4109 33.7213 25.8545 32.6222 25.8561C22.3923 25.8591 12.1623 25.8561 1.93381 25.8606C1.0407 25.8606 0.408918 25.5257 0.136836 24.643C0.133762 17.752 0.12915 10.8609 0.126076 3.9698C0.465795 3.02754 0.840869 2.74914 1.79854 2.7262C1.95226 2.72314 2.10598 2.72773 2.25969 2.72467C2.69318 2.71855 3.21736 2.8608 3.53864 2.66807C3.91063 2.44474 3.63855 1.87418 3.70158 1.45964C3.83839 0.573976 4.46095 0.0125936 5.37404 0.00494539C6.47467 -0.00423252 7.57529 0.00188605 8.67592 0.0034157C9.97638 0.00494535 10.622 0.603039 10.5805 1.91242C10.559 2.58241 10.7327 2.74608 11.4137 2.74302C18.477 2.71396 25.5404 2.72467 32.6038 2.72773C33.7967 2.72926 34.2747 3.1392 34.4607 4.28491ZM1.53107 24.7929C1.73551 25.0178 2.00913 24.9352 2.25355 24.9352C12.256 24.9383 22.257 24.9367 32.2595 24.9352C33.2848 24.9352 33.5092 24.7042 33.5092 23.6748C33.5107 18.838 33.4938 14.0013 33.5277 9.16603C33.5323 8.41497 33.3048 8.14422 32.5792 8.26506C32.4793 8.28189 32.3748 8.27577 32.2733 8.28036C31.7983 8.1947 31.6139 8.39508 31.66 8.86469C31.6846 9.11708 31.66 9.37406 31.6646 9.62951C31.6738 10.1741 31.4002 10.4127 30.8622 10.4096C29.5048 10.402 28.1475 10.4005 26.7902 10.4112C26.2552 10.4142 26 10.194 25.9739 9.64328C25.9093 8.26659 25.8955 8.26812 24.532 8.26812C24.3014 8.26812 24.0709 8.26201 23.8403 8.27118C23.6958 8.2773 23.5021 8.21918 23.4422 8.40426C23.3884 8.57253 23.5574 8.66736 23.6543 8.77903C25.4528 10.8395 26.123 13.1982 25.6941 15.9118C24.9578 20.5757 20.2264 23.8247 15.5733 22.8044C10.2331 21.6327 7.37238 16.2911 9.33076 11.2173C9.74734 10.1358 10.5252 9.30217 11.1769 8.26965C7.90886 8.26965 4.73918 8.27424 1.5695 8.26353C1.13293 8.262 1.07145 8.47922 1.07298 8.83563C1.07913 13.934 1.0776 19.0308 1.07452 24.1291C1.07452 24.4625 1.12064 24.7455 1.53107 24.7929ZM17.2165 3.69599C17.2165 3.69294 17.2165 3.68988 17.2165 3.68682C17.0367 3.68682 16.8584 3.68682 16.6785 3.68682C11.8364 3.68682 6.99424 3.68682 2.15209 3.68682C1.17598 3.68682 1.07913 3.78318 1.07606 4.71933C1.07452 5.3572 1.11603 5.99812 1.06376 6.62987C1.01611 7.20349 1.19596 7.35186 1.77548 7.34727C5.1573 7.31821 8.53911 7.32892 11.9209 7.3381C12.3175 7.33963 12.6511 7.24173 13.0016 7.05052C15.4288 5.72431 18.0082 5.42909 20.5061 6.61151C21.885 7.26467 23.2177 7.3381 24.6366 7.33351C24.7903 7.33351 24.9486 7.30903 25.0962 7.3381C25.8571 7.48188 26.103 7.15607 25.9847 6.43407C25.8724 5.74573 26.1614 5.47039 26.8855 5.49792C28.1137 5.54534 29.345 5.51016 30.5747 5.51169C31.6446 5.51169 31.6753 5.51322 31.6384 6.58398C31.6185 7.15454 31.7338 7.45894 32.3778 7.3228C32.55 7.28609 32.7375 7.29527 32.9143 7.31821C33.3417 7.37175 33.5077 7.22184 33.4846 6.77212C33.4493 6.08531 33.4785 5.39544 33.4739 4.70709C33.4677 3.84743 33.3186 3.69752 32.4347 3.69752C27.3605 3.69294 22.2877 3.69599 17.2165 3.69599ZM17.2934 6.90979C13.123 6.90979 9.68893 10.2873 9.68585 14.3928C9.68278 18.581 13.0707 21.9922 17.2488 22.0059C21.4131 22.0197 24.8656 18.5902 24.8656 14.4403C24.8656 10.3316 21.4254 6.90979 17.2934 6.90979ZM7.10338 2.75526C7.69212 2.75526 8.27933 2.74455 8.86807 2.75985C9.26466 2.77056 9.59516 2.75067 9.54443 2.21376C9.49678 1.70898 9.71967 1.00228 8.93417 0.9518C7.73823 0.875317 6.52693 0.867669 5.33253 0.959448C4.66078 1.00993 4.62696 1.64932 4.62235 2.20764C4.61774 2.7935 5.02356 2.75679 5.41708 2.75526C5.97969 2.75373 6.5423 2.75373 7.10338 2.75526ZM28.7393 9.4536C29.1989 9.4536 29.6616 9.43219 30.1197 9.45972C30.5271 9.4842 30.6577 9.32205 30.6439 8.93046C30.6208 8.29566 30.6178 7.65779 30.6454 7.02146C30.6639 6.59622 30.5301 6.42948 30.0828 6.4509C29.4187 6.48149 28.7531 6.4509 28.0875 6.4509C26.93 6.44937 26.93 6.4509 26.93 7.63485C26.9316 9.4689 26.9316 9.4689 28.7393 9.4536Z" fill="white"/>
<path d="M17.2165 3.69598C22.2892 3.69598 27.362 3.69446 32.4332 3.69751C33.317 3.69751 33.4661 3.84742 33.4723 4.70708C33.4769 5.39543 33.4477 6.0853 33.4831 6.77211C33.5061 7.2203 33.3401 7.37021 32.9128 7.3182C32.736 7.29679 32.5484 7.28761 32.3763 7.32279C31.7307 7.45893 31.6169 7.15606 31.6369 6.58397C31.6738 5.51474 31.643 5.51321 30.5732 5.51168C29.3434 5.51168 28.1121 5.54533 26.8839 5.49791C26.1599 5.47038 25.8709 5.74419 25.9831 6.43406C26.1015 7.15606 25.854 7.48034 25.0946 7.33809C24.9455 7.31055 24.7887 7.3335 24.635 7.3335C23.2162 7.33962 21.8819 7.26466 20.5046 6.6115C18.0082 5.42908 15.4288 5.7243 13 7.05051C12.6495 7.24172 12.316 7.33961 11.9194 7.33809C8.53755 7.32891 5.15574 7.3182 1.77392 7.34726C1.1944 7.35185 1.01302 7.20348 1.06221 6.62986C1.11754 5.99658 1.0745 5.35566 1.07604 4.71932C1.07911 3.78317 1.17596 3.68681 2.15207 3.68681C6.99422 3.68528 11.8364 3.68681 16.6785 3.68681C16.8584 3.68681 17.0367 3.68681 17.2165 3.68681C17.2165 3.68987 17.2165 3.69293 17.2165 3.69598Z" fill="white" fill-opacity="0.2"/>
</svg>
