<svg width="11" height="14" viewBox="0 0 11 14" fill="none" xmlns="http://www.w3.org/2000/svg">
<path d="M5.06356 2.02885C4.57642 2.02885 4.10022 2.1733 3.69518 2.44394C3.29015 2.71458 2.97446 3.09925 2.78804 3.5493C2.60162 3.99936 2.55284 4.49459 2.64788 4.97236C2.74291 5.45014 2.97749 5.889 3.32195 6.23346C3.66641 6.57792 4.10527 6.8125 4.58305 6.90753C5.06082 7.00257 5.55605 6.95379 6.00611 6.76737C6.45616 6.58095 6.84083 6.26526 7.11147 5.86022C7.38211 5.45519 7.52656 4.97899 7.52656 4.49185C7.52656 3.83862 7.26706 3.21215 6.80516 2.75025C6.34326 2.28834 5.71678 2.02885 5.06356 2.02885ZM5.06356 6.09517C4.74645 6.09517 4.43646 6.00114 4.1728 5.82496C3.90914 5.64879 3.70364 5.39838 3.58228 5.10542C3.46093 4.81245 3.42918 4.49007 3.49105 4.17906C3.55291 3.86805 3.70561 3.58237 3.92984 3.35814C4.15407 3.13391 4.43975 2.98121 4.75076 2.91934C5.06178 2.85748 5.38415 2.88923 5.67712 3.01058C5.97009 3.13193 6.22049 3.33743 6.39666 3.6011C6.57284 3.86476 6.66687 4.17475 6.66687 4.49185C6.66573 4.91633 6.49631 5.32304 6.19575 5.62279C5.8952 5.92254 5.48804 6.09087 5.06356 6.09087V6.09517Z" fill="#001D58"/>
<path d="M5.06356 4.25511e-10C3.72468 0.00111827 2.44064 0.532011 1.4919 1.47673C0.543163 2.42144 0.00681316 3.7032 0 5.04206C0 7.04943 1.12619 8.73012 1.95149 9.95517L2.10193 10.1787C2.92305 11.3688 3.80393 12.5165 4.74117 13.6174L5.06785 14L5.39454 13.6174C6.33166 12.5164 7.21253 11.3687 8.03377 10.1787L8.18422 9.95088C9.00522 8.72582 10.1314 7.04943 10.1314 5.04206C10.1246 3.70246 9.58765 2.42005 8.63798 1.47521C7.68831 0.530374 6.40318 -1.73468e-05 5.06356 4.25511e-10ZM7.46638 9.45656L7.31164 9.68437C6.57231 10.7934 5.59226 12.0356 5.06356 12.6503C4.55634 12.0356 3.55481 10.7934 2.81547 9.68437L2.66503 9.45656C1.90421 8.32177 0.859687 6.77003 0.859687 5.02487C0.859687 4.47281 0.968423 3.92616 1.17969 3.41612C1.39095 2.90608 1.70061 2.44265 2.09097 2.05229C2.48134 1.66192 2.94477 1.35227 3.4548 1.141C3.96484 0.929737 4.5115 0.821001 5.06356 0.821001C5.61562 0.821001 6.16227 0.929737 6.67231 1.141C7.18234 1.35227 7.64577 1.66192 8.03614 2.05229C8.42651 2.44265 8.73616 2.90608 8.94742 3.41612C9.15869 3.92616 9.26742 4.47281 9.26742 5.02487C9.26742 6.78723 8.2272 8.33896 7.46638 9.45656Z" fill="#001D58"/>
</svg>
