<svg width="36" height="45" viewBox="0 0 36 45" fill="none" xmlns="http://www.w3.org/2000/svg">
<path d="M22.5 0L36 13.5V40.5C36 41.6935 35.5259 42.8381 34.682 43.682C33.8381 44.5259 32.6935 45 31.5 45H4.5C3.30653 45 2.16193 44.5259 1.31802 43.682C0.474106 42.8381 0 41.6935 0 40.5V4.5C0 3.30653 0.474106 2.16193 1.31802 1.31802C2.16193 0.474106 3.30653 0 4.5 0H22.5ZM31.5 40.5V15.75H20.25V4.5H4.5V40.5H31.5ZM29.25 24.75V38.25H6.75L18 27L22.5 31.5L29.25 24.75ZM13.5 19.125C13.5 20.0201 13.1444 20.8786 12.5115 21.5115C11.8786 22.1444 11.0201 22.5 10.125 22.5C9.22989 22.5 8.37145 22.1444 7.73851 21.5115C7.10558 20.8786 6.75 20.0201 6.75 19.125C6.75 18.2299 7.10558 17.3714 7.73851 16.7385C8.37145 16.1056 9.22989 15.75 10.125 15.75C11.0201 15.75 11.8786 16.1056 12.5115 16.7385C13.1444 17.3714 13.5 18.2299 13.5 19.125Z" fill="#003296" fill-opacity="0.5"/>
</svg>
