<svg width="78" height="33" viewBox="0 0 78 33" fill="none" xmlns="http://www.w3.org/2000/svg">
<rect x="0.5" y="0.5" width="77" height="32" rx="4.5" stroke="#001D58"/>
<path d="M43.9308 12.6L40.6908 19.896L37.4748 12.6H36.5148L40.2348 21H41.1108L44.8308 12.6H43.9308ZM46.9267 13.308C47.2867 13.308 47.5507 13.032 47.5507 12.684C47.5507 12.36 47.2747 12.096 46.9267 12.096C46.5787 12.096 46.3027 12.372 46.3027 12.696C46.3027 13.032 46.5787 13.308 46.9267 13.308ZM46.4947 21H47.3467V14.688H46.4947V21ZM55.8854 17.844C55.8854 15.948 54.6014 14.64 52.8254 14.64C51.0494 14.64 49.7414 15.972 49.7414 17.844C49.7414 19.716 51.0854 21.06 53.0534 21.06C54.0494 21.06 54.9254 20.7 55.4894 20.028L55.0094 19.476C54.5294 20.028 53.8454 20.304 53.0774 20.304C51.6974 20.304 50.6894 19.428 50.5934 18.108H55.8734C55.8734 18.012 55.8854 17.916 55.8854 17.844ZM52.8254 15.372C54.0614 15.372 54.9614 16.236 55.0694 17.472H50.5934C50.7014 16.236 51.6014 15.372 52.8254 15.372ZM66.6464 14.688L64.6424 20.052L62.6264 14.688H61.8944L59.8664 20.052L57.8864 14.688H57.0704L59.4464 21H60.2504L62.2424 15.828L64.2344 21H65.0384L67.4264 14.688H66.6464Z" fill="#001D58"/>
<path d="M18 13.6818C18.651 13.6818 19.2753 13.9404 19.7356 14.4007C20.1959 14.8611 20.4545 15.4854 20.4545 16.1364C20.4545 16.7873 20.1959 17.4117 19.7356 17.872C19.2753 18.3323 18.651 18.5909 18 18.5909C17.349 18.5909 16.7247 18.3323 16.2644 17.872C15.8041 17.4117 15.5455 16.7873 15.5455 16.1364C15.5455 15.4854 15.8041 14.8611 16.2644 14.4007C16.7247 13.9404 17.349 13.6818 18 13.6818ZM18 10C22.0909 10 25.5845 12.5445 27 16.1364C25.5845 19.7282 22.0909 22.2727 18 22.2727C13.9091 22.2727 10.4155 19.7282 9 16.1364C10.4155 12.5445 13.9091 10 18 10ZM10.7836 16.1364C11.4449 17.4866 12.4718 18.6242 13.7475 19.4199C15.0232 20.2156 16.4965 20.6374 18 20.6374C19.5035 20.6374 20.9768 20.2156 22.2525 19.4199C23.5282 18.6242 24.5551 17.4866 25.2164 16.1364C24.5551 14.7861 23.5282 13.6485 22.2525 12.8528C20.9768 12.0571 19.5035 11.6353 18 11.6353C16.4965 11.6353 15.0232 12.0571 13.7475 12.8528C12.4718 13.6485 11.4449 14.7861 10.7836 16.1364Z" fill="#001D58"/>
</svg>
